HIERARCHY
ROOT Hips
{
	OFFSET 0.00000 0.00000 0.00000
	CHANNELS 6 Xposition Yposition Zposition Yrotation Zrotation Xrotation 
	JOINT Lumbar
	{
		OFFSET 0 0 0
		CHANNELS 3 Zrotation Xrotation Yrotation
		JOINT Neck
		{
			OFFSET 0.00 0.2701 0.00
			CHANNELS 3 Zrotation Xrotation Yrotation
			End Site
			{
				OFFSET 0.00 0.1379 0.00
			}
		}
		JOINT RightShoulder
		{
			OFFSET 0.0119 0.2289 0.1181
			CHANNELS 3 Zrotation Xrotation Yrotation
			JOINT RightElbow
			{
				OFFSET 0.00 -0.1475 0.00
				CHANNELS 2 Zrotation Yrotation
				JOINT RightWrist
				{
					OFFSET 0.00 -0.1605 0.00
					CHANNELS 2 Zrotation Xrotation
					End Site
					{
						OFFSET 0.0040 -0.1068 0.0006
					}
				}
			}
		}
		JOINT LeftShoulder
		{
			OFFSET 0.0119 0.2289 -0.1181
			CHANNELS 3 Zrotation Xrotation Yrotation
			JOINT LeftElbow
			{
				OFFSET 0.00 -0.1475 0.00
				CHANNELS 2 Zrotation Yrotation
				JOINT LeftWrist
				{
					OFFSET 0.00 -0.1605 0.00
					CHANNELS 2 Zrotation Xrotation
					End Site
					{
						OFFSET 0.0040 -0.1068 -0.0006
					}
				}
			}
		}
	}
	JOINT RightHip
	{
		OFFSET 0.0316 -0.0424 0.0458
		CHANNELS 3 Zrotation Xrotation Yrotation
		JOINT RightKnee
		{
			OFFSET 0.00 -0.2438 0.00
			CHANNELS 1 Zrotation
			JOINT RightAnkle
			{
				OFFSET 0.00 -0.2449 0.00
				CHANNELS 3 Zrotation Xrotation Yrotation
				End Site
				{
					OFFSET 0.1237 -0.0542 0.0051
				}
			}
		}
	}
	JOINT LeftHip
	{
		OFFSET 0.0316 -0.0424 -0.0458
		CHANNELS 3 Zrotation Xrotation Yrotation
		JOINT LeftKnee
		{
			OFFSET 0.00 -0.2438 0.00
			CHANNELS 1 Zrotation
			JOINT LeftAnkle
			{
				OFFSET 0.00 -0.2449 0.00
				CHANNELS 3 Zrotation Xrotation Yrotation
				End Site
				{
					OFFSET 0.1237 -0.0542 -0.0051
				}
			}
		}
	}
}
MOTION
Frames: 32
Frame Time: 0.02
0 0.57926 -0 187.6134 0 -2.78713 5.47267 2.13124 -3.68162 -9.21853 4.89601 -1.39203 20.36032 -12.66409 30.84803 15.56289 80.03365 -1.88811 -6.05359 25.65697 3.07319 -15.77136 13.05919 -81.69478 -5.0243 4.46412 -5.77349 7.5838 5.94803 -3.64497 0.79321 -5.0752 -14.16286 -3.47931 0.65897 -13.89092 -4.87701 4.10996 4.48241 5.6127
-0.00028 0.57917 0.00016 187.63654 0 -2.79037 5.3895 2.15176 -3.69631 -9.17258 4.98134 -1.38304 18.88856 -13.05878 28.52077 14.26701 80.24984 -1.68041 -5.18782 23.9365 3.21365 -15.92739 11.95959 -81.40414 -4.78023 3.92277 -5.83053 7.53051 4.38589 -3.59452 0.96902 -4.97437 -12.61771 -3.52905 0.65473 -13.95587 -4.83558 4.13765 4.5008 5.65828
-0.00057 0.57908 0.00032 187.65926 0 -2.79369 5.30624 2.17232 -3.71105 -9.12591 5.06636 -1.37415 17.41805 -13.45309 26.17596 12.97766 80.45903 -1.47606 -4.32565 22.21685 3.35349 -16.0489 10.86643 -81.11094 -4.53898 3.38306 -5.88727 7.47769 2.83604 -3.54449 1.14346 -4.8741 -11.08463 -3.57866 0.65057 -14.02004 -4.79435 4.16516 4.51905 5.70351
-0.00086 0.57898 0.00048 187.68165 0 -2.79719 5.22283 2.19304 -3.72667 -9.078 5.15142 -1.36612 15.9437 -13.84907 23.75075 11.70017 80.64919 -1.28191 -3.46954 20.489 3.49174 -16.0779 9.78755 -80.80502 -4.30551 2.84293 -5.94425 7.42619 1.31967 -3.4948 1.3144 -4.77507 -9.58532 -3.62892 0.64679 -14.08208 -4.75257 4.19236 4.53668 5.74697
-0.00113 0.57888 0.00064 187.70715 0 -2.79952 5.14145 2.21268 -3.73823 -9.03918 5.23679 -1.35417 14.49627 -14.23542 21.76633 10.35788 80.94834 -1.0323 -2.58144 18.81093 3.63779 -16.64988 8.63214 -80.56682 -4.02944 2.30291 -6.00103 7.36765 -0.37457 -3.44231 1.50424 -4.66943 -7.90783 -3.67654 0.64111 -14.15581 -4.71254 4.22137 4.55731 5.79885
-0.00144 0.5788 0.0008 187.72511 0 -2.80446 5.05502 2.23474 -3.75797 -8.97945 5.32107 -1.35011 12.98893 -14.6423 18.84158 9.15533 81.01111 -0.9012 -1.76181 17.025 3.76761 -16.03699 7.64036 -80.18539 -3.84472 1.76466 -6.05746 7.32408 -1.69059 -3.39646 1.65365 -4.5779 -6.60838 -3.72914 0.63938 -14.20449 -4.66966 4.2464 4.57175 5.83353
-0.00188 0.57876 0.00098 187.72982 0 -2.81608 4.95886 2.26312 -3.80502 -8.87268 5.407 -1.37223 11.30611 -15.11427 13.22912 8.308 80.44762 -1.09745 -1.11611 14.91687 3.85181 -12.31802 7.08412 -79.38665 -3.90886 1.2048 -6.12046 7.32202 -1.96301 -3.36257 1.69355 -4.524 -6.35965 -3.80224 0.64943 -14.18493 -4.61039 4.26178 4.56751 5.81415
-0.00235 0.57873 0.00115 187.72555 0 -2.83044 4.85675 2.29409 -3.85949 -8.74278 5.49083 -1.40161 9.56382 -15.60562 6.68044 7.60637 79.64158 -1.41324 -0.54173 12.70284 3.92026 -7.37048 6.69545 -78.44757 -4.06634 0.6514 -6.18182 7.33504 -1.85374 -3.33636 1.69224 -4.4845 -6.49109 -3.87918 0.66334 -14.13988 -4.54964 4.27289 4.55731 5.77854
-0.00278 0.57871 0.00132 187.72042 0 -2.84391 4.75449 2.32413 -3.90756 -8.61625 5.57297 -1.4248 7.85179 -16.08363 0.60861 6.85706 78.92641 -1.6749 0.05643 10.5493 3.99605 -2.86916 6.24008 -77.58437 -4.18286 0.11106 -6.2391 7.34102 -1.91888 -3.31093 1.7085 -4.43921 -6.44391 -3.9501 0.67491 -14.10587 -4.49512 4.28509 4.55088 5.75466
-0.00331 0.57866 0.00151 187.73604 0 -2.85593 4.66425 2.35298 -3.96844 -8.51954 5.66719 -1.45997 6.12207 -16.582 -5.69022 6.02994 78.28638 -1.93689 0.69149 8.34032 4.06947 1.16797 5.74495 -76.66551 -4.29145 -0.49843 -6.31664 7.34777 -1.98003 -3.26814 1.72985 -4.39082 -6.42141 -4.03915 0.68886 -14.07418 -4.41751 4.30094 4.54 5.71261
-0.00365 0.57865 0.00164 187.70645 0 -2.87157 4.54761 2.38508 -4.00434 -8.35566 5.73459 -1.47217 4.42042 -17.04095 -11.72498 5.39916 77.44054 -2.22511 1.23201 6.22614 4.14607 6.45192 5.37237 -75.83513 -4.44096 -0.96021 -6.35171 7.35651 -1.95871 -3.26253 1.73054 -4.35222 -6.43794 -4.09124 0.69885 -14.03159 -4.38719 4.30808 4.53692 5.70428
-0.00351 0.57878 0.00164 187.55298 0 -2.89689 4.35914 2.42418 -3.97005 -8.00824 5.73861 -1.41711 2.76552 -17.40059 -16.91941 5.2773 76.0141 -2.56917 1.53548 4.36187 4.21839 14.97216 5.29744 -75.23262 -4.66163 -1.03466 -6.26876 7.36701 -1.80472 -3.36455 1.68662 -4.33779 -6.46759 -4.04133 0.69629 -13.96493 -4.49159 4.29292 4.55713 5.79519
-0.00317 0.57895 0.00159 187.35462 0 -2.92567 4.14441 2.46665 -3.91029 -7.59482 5.71403 -1.33911 1.15042 -17.71737 -21.7925 5.3476 74.40213 -2.93307 1.74487 2.605 4.29756 24.68047 5.34004 -74.73352 -4.9239 -0.95736 -6.14329 7.379 -1.58069 -3.5024 1.62289 -4.33259 -6.5237 -3.95391 0.68974 -13.88814 -4.64278 4.26894 4.58524 5.92006
-0.00291 0.5791 0.00156 187.1775 0 -2.95265 3.94195 2.50853 -3.86174 -7.2139 5.69566 -1.27291 -0.45464 -18.04425 -26.73729 5.3282 72.92224 -3.27964 1.99331 0.82194 4.38471 33.79196 5.32855 -74.22025 -5.17942 -0.9369 -6.03806 7.39033 -1.38757 -3.61939 1.5667 -4.32275 -6.56873 -3.88303 0.68542 -13.81618 -4.77023 4.24858 4.60967 6.02818
-0.00271 0.57927 0.00154 186.99619 0 -2.98077 3.73776 2.54677 -3.81483 -6.82111 5.70506 -1.20101 -2.18502 -18.41088 -32.0343 5.32357 71.23281 -3.66571 2.25571 -1.06587 4.42464 43.21452 5.32552 -73.56318 -5.38643 -0.9666 -5.92903 7.40213 -1.18473 -3.75615 1.51531 -4.31532 -6.62297 -3.81445 0.67942 -13.74267 -4.90863 4.22991 4.63471 6.1419
-0.00232 0.57941 0.00147 186.81348 0 -3.00721 3.53115 2.59307 -3.75855 -6.43828 5.65084 -1.13565 -3.63853 -18.68493 -36.50199 5.33232 69.93819 -3.97237 2.46658 -2.70166 4.56457 52.22015 5.3309 -73.23242 -5.70371 -0.85685 -5.81768 7.41309 -0.99084 -3.85993 1.44969 -4.30484 -6.65943 -3.73209 0.67596 -13.66993 -5.03468 4.20545 4.65987 6.25145
-0.00142 0.57951 0.00131 186.6345 0 -3.02889 3.32325 2.66341 -3.68114 -6.09409 5.41917 -1.09222 -4.38336 -18.70773 -38.80843 5.32704 69.78799 -4.05656 2.56722 -3.72501 4.98089 60.07192 5.32767 -73.77242 -6.30782 -0.39113 -5.71176 7.42152 -0.83756 -3.86564 1.35014 -4.28393 -6.63777 -3.62099 0.68002 -13.60552 -5.12128 4.16924 4.68839 6.34822
-0.00032 0.57958 0.0011 186.45645 0 -3.04861 3.11412 2.74128 -3.5955 -5.76341 5.12596 -1.05651 -4.84116 -18.63955 -40.27314 5.32862 70.04177 -4.05911 2.61773 -4.48614 5.49741 67.39845 5.32866 -74.63711 -7.02075 0.20787 -5.60468 7.42898 -0.69795 -3.83658 1.23702 -4.25951 -6.59585 -3.49716 0.68682 -13.54187 -5.19286 4.12713 4.71598 6.43846
0.0007 0.57967 0.00091 186.28011 0 -3.06871 2.90616 2.81398 -3.5145 -5.42974 4.86686 -1.01832 -5.40086 -18.61738 -42.09086 5.32886 70.10521 -4.09749 2.68587 -5.33069 5.96678 74.77621 5.32878 -75.35937 -7.69036 0.74095 -5.49722 7.43671 -0.5547 -3.82226 1.13003 -4.23647 -6.56296 -3.37922 0.69265 -13.47535 -5.26714 4.08642 4.74062 6.52704
0.00166 0.57976 0.00073 186.09274 0 -3.09106 2.69438 2.89413 -3.42856 -5.0798 4.58141 -0.97476 -6.08315 -18.57543 -44.03961 5.32824 70.18779 -4.14249 2.7732 -6.32701 6.44287 83.00681 5.32835 -76.07079 -8.34229 1.30316 -5.39223 7.44517 -0.39752 -3.81363 1.02264 -4.21466 -6.53203 -3.26 0.6972 -13.41835 -5.35985 4.05093 4.77926 6.636
0.0028 0.57983 0.00053 185.92976 0 -3.10826 2.49103 2.96058 -3.35162 -4.76861 4.33587 -0.9448 -6.43814 -18.55188 -45.49827 5.32871 70.33232 -4.15344 2.80891 -6.94068 6.92906 89.2967 5.32893 -76.87143 -9.04794 1.83282 -5.28223 7.45192 -0.27401 -3.78446 0.91292 -4.18934 -6.49174 -3.14032 0.70508 -13.3428 -5.41078 4.00314 4.78907 6.70093
0.00441 0.57982 0.00027 185.82896 0 -3.11127 2.3079 2.9868 -3.29854 -4.55516 4.22164 -0.94836 -5.99584 -18.61538 -45.99138 5.32839 70.52047 -4.09526 2.72306 -6.60945 7.4152 90.54971 5.3281 -77.91896 -9.94822 2.2521 -5.15994 7.45348 -0.23713 -3.70674 0.80211 -4.15529 -6.43047 -3.02767 0.72166 -13.20777 -5.34314 3.92392 4.71364 6.64251
0.0062 0.57979 -0 185.75387 0 -3.10921 2.13417 2.99909 -3.25538 -4.38195 4.14841 -0.96592 -5.2272 -18.69742 -45.98793 5.32873 70.7628 -4.00465 2.58572 -5.89343 7.90841 89.82422 5.32893 -79.03098 -10.88599 2.6308 -5.03255 7.45345 -0.23455 -3.60956 0.68919 -4.11781 -6.36042 -2.91416 0.74143 -13.05568 -5.23511 3.83235 4.6102 6.54056
0.00792 0.57977 -0.00027 185.67044 0 -3.10977 1.95833 3.0181 -3.20989 -4.19418 4.05296 -0.97856 -4.58475 -18.76293 -46.09403 5.32865 71.00072 -3.92547 2.46689 -5.32337 8.40096 89.87302 5.32945 -80.05879 -11.75727 3.01964 -4.90699 7.45461 -0.21868 -3.52112 0.57595 -4.08179 -6.29411 -2.79786 0.75969 -12.91664 -5.14973 3.74578 4.52349 6.46049
0.00961 0.57975 -0.00054 185.57278 0 -3.10901 1.77285 3.03568 -3.15529 -3.98994 3.97173 -0.98516 -4.02681 -18.86242 -46.66056 5.3278 71.16947 -3.85716 2.36745 -4.86769 8.88735 90.43649 5.32504 -81.32423 -12.837 3.4491 -4.78374 7.45383 -0.19375 -3.43131 0.46744 -4.04599 -6.22773 -2.6947 0.77848 -12.75492 -5.04538 3.66164 4.42022 6.37101
0.01139 0.57973 -0.00081 185.51101 0 -3.10973 1.61031 3.0529 -3.12163 -3.83089 3.8699 -1.00781 -3.21765 -18.89303 -46.16146 5.33067 71.48718 -3.75989 2.21535 -4.08388 9.38554 89.45845 5.33534 -82.11277 -13.49528 3.78152 -4.65411 7.45664 -0.19538 -3.34096 0.349 -4.00908 -6.16023 -2.56391 0.79667 -12.63679 -4.97158 3.56952 4.34437 6.29131
0.01337 0.57975 -0.00113 185.541 0 -3.11643 1.50366 3.07204 -3.14793 -3.77379 3.71485 -1.06937 -1.80874 -18.76097 -42.84223 5.32595 72.22517 -3.58827 1.93686 -2.5065 9.92516 84.76352 5.34992 -81.50567 -12.93493 3.8648 -4.51139 7.47049 -0.26449 -3.24769 0.2016 -3.96876 -6.08722 -2.35908 0.81416 -12.64006 -4.98848 3.45897 4.3546 6.24585
0.01542 0.57979 -0.00146 185.60643 0 -3.12473 1.42067 3.09141 -3.19415 -3.76295 3.53559 -1.14696 -0.15756 -18.55347 -38.47212 5.32847 73.1052 -3.38962 1.60633 -0.61056 10.47334 78.57983 5.38564 -80.42584 -11.95736 3.85021 -4.36174 7.48788 -0.35856 -3.15601 0.04467 -3.92765 -6.01442 -2.12609 0.83059 -12.68849 -5.03838 3.3407 4.39277 6.21256
0.01744 0.57982 -0.00179 185.65635 0 -3.13183 1.33037 3.11092 -3.2283 -3.73966 3.35853 -1.21843 1.39108 -18.35992 -34.58636 5.33888 73.90342 -3.20506 1.29549 1.15082 11.01089 73.04093 5.43552 -79.60296 -11.19993 3.87295 -4.21323 7.50311 -0.43953 -3.0677 -0.1064 -3.88769 -5.94453 -1.90478 0.84632 -12.71816 -5.07544 3.22566 4.41583 6.17576
0.01946 0.57984 -0.00212 185.7047 0 -3.14059 1.22626 3.12876 -3.27553 -3.68246 3.21931 -1.28535 2.92125 -18.25269 -30.65275 5.30101 74.77602 -3.01101 0.99898 2.88463 11.57961 67.55779 5.3862 -78.60752 -10.31405 3.92151 -4.07337 7.5205 -0.52932 -2.96091 -0.26374 -3.84434 -5.86136 -1.68842 0.86711 -12.73931 -5.10151 3.11148 4.448 6.12826
0.02149 0.57988 -0.00244 185.76435 0 -3.14654 1.15594 3.15052 -3.30014 -3.70528 2.9959 -1.36551 4.54078 -17.94765 -26.57759 5.3668 75.52746 -2.83157 0.66162 4.74403 12.08231 61.64218 5.54713 -77.85488 -9.5973 3.89736 -3.91347 7.53443 -0.60598 -2.89387 -0.41057 -3.80781 -5.80636 -1.45472 0.87712 -12.78977 -5.15939 2.99367 4.4683 6.10735
0.02349 0.57994 -0.00271 185.84698 0 -3.14261 1.17665 3.18128 -3.25717 -3.94575 2.5384 -1.47699 6.3646 -17.11397 -22.35745 5.70536 75.90178 -2.69246 0.21843 6.88927 12.4257 54.8084 6.29464 -77.91785 -9.43813 3.66267 -3.70326 7.53635 -0.64164 -2.93186 -0.52315 -3.79147 -5.82675 -1.18283 0.85711 -12.9052 -5.29323 2.86951 4.44835 6.1503
